<svg width="2228" height="205" viewBox="0 0 2228 205" fill="none" xmlns="http://www.w3.org/2000/svg">
<path d="M29.696 0.399986H147.776L74.336 202.288L0.896 0.399986H10.112L74.336 176.944L135.392 9.04H29.696V0.399986ZM189.808 202H181.168V0.399986H189.808V202ZM366.508 0.399986V9.04H298.828V202H290.188V9.04H222.508V0.399986H366.508ZM502.81 96.592H417.274L505.402 9.04H408.058V193.36H519.802V202H399.418V0.399986H526.426L438.298 87.952H502.81V96.592ZM655.477 9.04V0.399986H848.149L774.709 202.288L737.269 99.76L700.117 202.288L626.677 0.399986H635.893L700.117 176.944L737.269 74.416L774.709 176.944L835.765 9.04H655.477ZM984.873 96.592H899.337L987.465 9.04H890.121V193.36H1001.86V202H881.481V0.399986H1008.49L920.361 87.952H984.873V96.592ZM1093.5 202H1047.42V0.399986H1082.55C1107.9 0.399986 1127 5.10399 1139.87 14.512C1152.73 23.728 1159.16 36.784 1159.16 53.68C1159.16 72.88 1151.1 86.992 1134.97 96.016C1158.39 104.848 1170.11 121.456 1170.11 145.84C1170.11 163.12 1163.77 176.848 1151.1 187.024C1138.43 197.008 1119.23 202 1093.5 202ZM1093.5 193.36C1102.52 193.36 1110.78 192.688 1118.27 191.344C1125.75 189.808 1132.86 187.408 1139.58 184.144C1146.49 180.688 1151.87 175.696 1155.71 169.168C1159.55 162.64 1161.47 154.864 1161.47 145.84C1161.47 125.296 1151.58 111.376 1131.8 104.08L1114.52 97.744L1130.65 88.528C1143.9 81.232 1150.52 69.616 1150.52 53.68C1150.52 23.92 1127.87 9.04 1082.55 9.04H1056.06V193.36H1093.5ZM1317.59 96.592H1232.06L1320.18 9.04H1222.84V193.36H1334.58V202H1214.2V0.399986H1341.21L1253.08 87.952H1317.59V96.592ZM1426.22 95.728L1482.67 202H1472.87L1421.32 104.944L1369.77 202H1359.98L1416.43 95.728L1365.74 0.399986H1375.53L1421.32 86.512L1467.11 0.399986H1476.91L1426.22 95.728ZM1639.45 0.399986V9.04H1571.77V202H1563.12V9.04H1495.45V0.399986H1639.45ZM1762.48 0.399986H1880.56L1807.12 202.288L1733.68 0.399986H1742.89L1807.12 176.944L1868.17 9.04H1762.48V0.399986ZM1935.26 0.399986H2045.57V115.312C2045.57 146.032 2040.29 168.688 2029.73 183.28C2019.17 197.68 2002.08 204.88 1978.46 204.88C1954.85 204.88 1937.76 197.68 1927.2 183.28C1916.64 168.688 1911.36 146.032 1911.36 115.312V0.399986H1920V115.312C1920 131.248 1921.34 144.688 1924.03 155.632C1926.72 166.384 1930.75 174.64 1936.13 180.4C1941.5 186.16 1947.55 190.288 1954.27 192.784C1960.99 195.088 1969.05 196.24 1978.46 196.24C1987.87 196.24 1995.93 195.088 2002.65 192.784C2009.37 190.288 2015.42 186.16 2020.8 180.4C2026.17 174.64 2030.21 166.384 2032.89 155.632C2035.58 144.688 2036.93 131.248 2036.93 115.312V9.04H1935.26V0.399986ZM2203.53 96.592H2117.99L2206.12 9.04H2108.78V193.36H2220.52V202H2100.14V0.399986H2227.15L2139.02 87.952H2203.53V96.592Z" fill="url(#paint0_linear_48_15)"/>
<defs>
<linearGradient id="paint0_linear_48_15" x1="-3.99998" y1="101.714" x2="2238" y2="101.714" gradientUnits="userSpaceOnUse">
<stop stop-color="#FFC517"/>
<stop offset="1" stop-color="#42B883"/>
</linearGradient>
</defs>
</svg>
