<svg width="2040" height="208" viewBox="0 0 2040 208" fill="none" xmlns="http://www.w3.org/2000/svg">
<path d="M121.472 205H112.832V104.2H9.152V205H0.512002V3.39999H9.152V95.56H112.832V3.39999H121.472V205ZM281.935 99.592H196.399L284.527 12.04H187.183V196.36H298.927V205H178.543V3.39999H305.551L217.423 90.952H281.935V99.592ZM354.273 3.39999H470.913L398.913 118.6V205H390.273V118.6L318.273 3.39999H328.353L394.593 109.096L455.361 12.04H354.273V3.39999ZM632.717 205H586.637V3.39999H621.773C647.117 3.39999 666.221 8.10399 679.085 17.512C691.949 26.728 698.381 39.784 698.381 56.68C698.381 75.88 690.317 89.992 674.189 99.016C697.613 107.848 709.325 124.456 709.325 148.84C709.325 166.12 702.989 179.848 690.317 190.024C677.645 200.008 658.445 205 632.717 205ZM632.717 196.36C641.741 196.36 649.997 195.688 657.485 194.344C664.973 192.808 672.077 190.408 678.797 187.144C685.709 183.688 691.085 178.696 694.925 172.168C698.765 165.64 700.685 157.864 700.685 148.84C700.685 128.296 690.797 114.376 671.021 107.08L653.741 100.744L669.869 91.528C683.117 84.232 689.741 72.616 689.741 56.68C689.741 26.92 667.085 12.04 621.773 12.04H595.277V196.36H632.717ZM775.882 196.36H855.37L820.522 100.744L836.65 91.528C849.898 84.232 856.522 72.616 856.522 56.68C856.522 26.92 833.866 12.04 788.554 12.04H762.058V205H753.418V3.39999H788.554C813.898 3.39999 833.002 8.10399 845.866 17.512C858.73 26.728 865.162 39.784 865.162 56.68C865.162 75.88 857.098 89.992 840.97 99.016L831.178 104.488L867.754 205H775.882V196.36ZM1023.79 186.28C1013.23 200.68 996.146 207.88 972.53 207.88C948.914 207.88 931.826 200.68 921.266 186.28C910.706 171.688 905.426 149.032 905.426 118.312V90.088C905.426 59.368 910.706 36.808 921.266 22.408C931.826 7.81599 948.914 0.519989 972.53 0.519989C996.146 0.519989 1013.23 7.81599 1023.79 22.408C1034.35 36.808 1039.63 59.368 1039.63 90.088V118.312C1039.63 149.032 1034.35 171.688 1023.79 186.28ZM996.722 12.904C990.002 10.408 981.938 9.16 972.53 9.16C963.122 9.16 955.058 10.408 948.338 12.904C941.618 15.208 935.57 19.24 930.194 25C924.818 30.76 920.786 39.112 918.098 50.056C915.41 60.808 914.066 74.152 914.066 90.088V118.312C914.066 134.248 915.41 147.688 918.098 158.632C920.786 169.384 924.818 177.64 930.194 183.4C935.57 189.16 941.618 193.288 948.338 195.784C955.058 198.088 963.122 199.24 972.53 199.24C981.938 199.24 990.002 198.088 996.722 195.784C1003.44 193.288 1009.49 189.16 1014.87 183.4C1020.24 177.64 1024.27 169.384 1026.96 158.632C1029.65 147.688 1030.99 134.248 1030.99 118.312V90.088C1030.99 74.152 1029.65 60.808 1026.96 50.056C1024.27 39.112 1020.24 30.76 1014.87 25C1009.49 19.24 1003.44 15.208 996.722 12.904ZM1169.25 53.224C1169.25 34.6 1173.95 21.16 1183.36 12.904C1192.77 4.64799 1208.03 0.519989 1229.15 0.519989C1243.93 0.519989 1255.84 4.35999 1264.86 12.04C1273.89 19.72 1280.41 31.432 1284.45 47.176L1257.66 67.336H1243.55L1274.65 44.008C1270.62 31.144 1264.77 22.12 1257.09 16.936C1249.6 11.752 1240.29 9.16 1229.15 9.16C1221.47 9.16 1214.94 9.64 1209.57 10.6C1204.38 11.56 1199.1 13.48 1193.73 16.36C1188.54 19.048 1184.61 23.464 1181.92 29.608C1179.23 35.752 1177.89 43.624 1177.89 53.224C1177.89 61.672 1181.73 69.16 1189.41 75.688C1197.28 82.216 1206.78 87.784 1217.92 92.392C1229.05 97 1240.19 101.704 1251.33 106.504C1262.65 111.304 1272.16 117.448 1279.84 124.936C1287.71 132.424 1291.65 141.064 1291.65 150.856C1291.65 170.056 1286.85 184.36 1277.25 193.768C1267.84 203.176 1251.61 207.88 1228.57 207.88C1209.76 207.88 1194.97 204.136 1184.22 196.648C1173.47 188.968 1166.08 177.16 1162.05 161.224L1170.11 157.768C1173.95 173.32 1180.48 184.168 1189.69 190.312C1199.1 196.264 1212.06 199.24 1228.57 199.24C1247.01 199.24 1260.64 195.688 1269.47 188.584C1278.49 181.48 1283.01 168.904 1283.01 150.856C1283.01 142.408 1279.07 134.92 1271.2 128.392C1263.52 121.864 1254.01 116.296 1242.69 111.688C1231.55 107.08 1220.41 102.376 1209.28 97.576C1198.14 92.776 1188.64 86.632 1180.77 79.144C1173.09 71.656 1169.25 63.016 1169.25 53.224ZM1456.54 3.39999V12.04H1388.86V205H1380.22V12.04H1312.54V3.39999H1456.54ZM1510.76 3.39999H1621.07V118.312C1621.07 149.032 1615.79 171.688 1605.23 186.28C1594.67 200.68 1577.58 207.88 1553.96 207.88C1530.35 207.88 1513.26 200.68 1502.7 186.28C1492.14 171.688 1486.86 149.032 1486.86 118.312V3.39999H1495.5V118.312C1495.5 134.248 1496.84 147.688 1499.53 158.632C1502.22 169.384 1506.25 177.64 1511.63 183.4C1517 189.16 1523.05 193.288 1529.77 195.784C1536.49 198.088 1544.55 199.24 1553.96 199.24C1563.37 199.24 1571.43 198.088 1578.15 195.784C1584.87 193.288 1590.92 189.16 1596.3 183.4C1601.67 177.64 1605.71 169.384 1608.39 158.632C1611.08 147.688 1612.43 134.248 1612.43 118.312V12.04H1510.76V3.39999ZM1703.29 205H1675.64V3.39999H1703.29C1730.93 3.39999 1754.36 13.576 1773.56 33.928C1792.76 54.28 1802.36 77.704 1802.36 104.2C1802.36 130.696 1792.76 154.12 1773.56 174.472C1754.36 194.824 1730.93 205 1703.29 205ZM1703.29 196.36C1728.44 196.36 1749.75 187.144 1767.22 168.712C1784.89 150.088 1793.72 128.584 1793.72 104.2C1793.72 79.816 1784.89 58.408 1767.22 39.976C1749.75 21.352 1728.44 12.04 1703.29 12.04H1684.28V196.36H1703.29ZM1855 205H1846.36V3.39999H1855V205ZM2023.92 186.28C2013.36 200.68 1996.27 207.88 1972.66 207.88C1949.04 207.88 1931.95 200.68 1921.39 186.28C1910.83 171.688 1905.55 149.032 1905.55 118.312V90.088C1905.55 59.368 1910.83 36.808 1921.39 22.408C1931.95 7.81599 1949.04 0.519989 1972.66 0.519989C1996.27 0.519989 2013.36 7.81599 2023.92 22.408C2034.48 36.808 2039.76 59.368 2039.76 90.088V118.312C2039.76 149.032 2034.48 171.688 2023.92 186.28ZM1996.85 12.904C1990.13 10.408 1982.06 9.16 1972.66 9.16C1963.25 9.16 1955.18 10.408 1948.46 12.904C1941.74 15.208 1935.7 19.24 1930.32 25C1924.94 30.76 1920.91 39.112 1918.22 50.056C1915.54 60.808 1914.19 74.152 1914.19 90.088V118.312C1914.19 134.248 1915.54 147.688 1918.22 158.632C1920.91 169.384 1924.94 177.64 1930.32 183.4C1935.7 189.16 1941.74 193.288 1948.46 195.784C1955.18 198.088 1963.25 199.24 1972.66 199.24C1982.06 199.24 1990.13 198.088 1996.85 195.784C2003.57 193.288 2009.62 189.16 2014.99 183.4C2020.37 177.64 2024.4 169.384 2027.09 158.632C2029.78 147.688 2031.12 134.248 2031.12 118.312V90.088C2031.12 74.152 2029.78 60.808 2027.09 50.056C2024.4 39.112 2020.37 30.76 2014.99 25C2009.62 19.24 2003.57 15.208 1996.85 12.904Z" fill="url(#paint0_linear_41_4)"/>
<defs>
<linearGradient id="paint0_linear_41_4" x1="-28" y1="104.714" x2="2062" y2="104.714" gradientUnits="userSpaceOnUse">
<stop stop-color="#FFC517"/>
<stop offset="1" stop-color="#42B883"/>
</linearGradient>
</defs>
</svg>
